<svg t="1698827080821" class="icon" viewBox="0 0 1024 1024" version="1.1" xmlns="http://www.w3.org/2000/svg" p-id="1947" width="200" height="200"><path d="M653 727.5c-2.9 0-5.8-0.8-8.4-2.5-7.1-4.6-9.1-14.1-4.4-21.2 14.3-21.9 48-43.7 69.3-49.6 8.1-2.2 16.6 2.5 18.8 10.7s-2.5 16.6-10.7 18.8c-15.2 4.2-42.1 22-51.8 36.8-2.9 4.5-7.8 7-12.8 7z" fill="#F5C73E" p-id="1948"></path><path d="M635.5 750.3c-4.6 0-9.2-2.1-12.2-6.1-5.1-6.8-3.7-16.3 3-21.4 30.8-23.2 69.1-30.4 92.6-29.5 8.4 0.3 15 7.4 14.7 15.9-0.3 8.4-7.4 15.1-15.9 14.7-19.2-0.7-50.3 6.3-73 23.4-2.8 2-6 3-9.2 3z" fill="#F5C73E" p-id="1949"></path><path d="M629.3 906.1H394.7l-77.9-74c23.4-89.3 83.4-130.1 83.4-130.1h223.7s59.9 40.8 83.4 130.1l-78 74z" fill="#F7867F" p-id="1950"></path><path d="M394.7 827.1v79h-87.2c0-27.6 3.5-57.2 9.3-79h77.9zM716.5 906.1h-87.2v-79h77.9c5.7 21.8 9.3 51.4 9.3 79z" fill="#FFECE3" p-id="1951"></path><path d="M628.7 700.6c64.7 102.9-28.9 155.3-116.7 155.3s-181.4-52.3-116.7-155.3h233.4z" fill="#99D37A" p-id="1952"></path><path d="M512 878.5c-56 0-122.2-19.9-149.3-68.9-13.4-24.2-21.9-64.9 13.4-121.1 6.7-10.6 20.6-13.8 31.2-7.1s13.8 20.6 7.1 31.2c-18.9 30.1-23 55.3-12.1 75.1 15 27.2 59.1 45.5 109.6 45.5s94.6-18.3 109.6-45.5c10.9-19.7 6.8-45-12.1-75.1-6.7-10.6-3.5-24.6 7.1-31.2 10.6-6.7 24.6-3.5 31.2 7.1 35.3 56.2 26.8 96.9 13.4 121.1-26.9 49-93.2 68.9-149.1 68.9z" fill="#FCE170" p-id="1953"></path><path d="M249.7 470.5m-76.8 0a76.8 76.8 0 1 0 153.6 0 76.8 76.8 0 1 0-153.6 0Z" fill="#F7DBD0" p-id="1954"></path><path d="M774.3 470.5m-76.8 0a76.8 76.8 0 1 0 153.6 0 76.8 76.8 0 1 0-153.6 0Z" fill="#F7DBD0" p-id="1955"></path><path d="M512 459.5m-269.3 0a269.3 269.3 0 1 0 538.6 0 269.3 269.3 0 1 0-538.6 0Z" fill="#FFECE3" p-id="1956"></path><path d="M326.5 558.2a49.8 39.5 0 1 0 99.6 0 49.8 39.5 0 1 0-99.6 0Z" fill="#FFD7DF" p-id="1957"></path><path d="M597.9 558.2a49.8 39.5 0 1 0 99.6 0 49.8 39.5 0 1 0-99.6 0Z" fill="#FFD7DF" p-id="1958"></path><path d="M509.3 265c-14 3-27.8-5.8-30.8-19.8s5.8-27.7 19.8-30.8c26-5.6 37.7-30.6 17-56.4-8.9-11.2-7.1-27.5 4.1-36.4 11.2-8.9 27.5-7.1 36.4 4.1 44.5 55.7 17 125.4-46.5 139.3z" fill="#47515E" p-id="1959"></path><path d="M560 670.9h-96c-44.1 0-80-32.3-80-72s35.9-72 80-72h2.4l2 1.3c26.4 17.6 60.8 17.6 87.1 0l2-1.3h2.4c44.1 0 80 32.3 80 72s-35.8 72-79.9 72z" fill="#E96E67" p-id="1960"></path><path d="M543.3 750.9h-62.7c-22.1 0-40-17.9-40-40 0-1 0-2.1 0.1-3.1l2.9-37.7c2.9-37.7 35.9-65.9 73.6-63 33.6 2.6 60.4 29.3 63 63l2.9 37.7c1.7 22-14.8 41.3-36.8 43-0.9 0-1.9 0.1-3 0.1z m-31.3-128c-27.4 0.1-50.1 21.2-52.3 48.5l-2.9 37.7c-1 13.2 8.9 24.8 22.1 25.8 0.6 0 1.2 0.1 1.9 0.1h62.7c13.3 0 24-10.7 24-24 0-0.6 0-1.2-0.1-1.9l-2.9-37.7c-2.4-27.4-25.1-48.4-52.5-48.5z" fill="#F7867F" p-id="1961"></path><path d="M512 622.9m-48 0a48 48 0 1 0 96 0 48 48 0 1 0-96 0Z" fill="#F7867F" p-id="1962"></path><path d="M600 582.9m-8 0a8 8 0 1 0 16 0 8 8 0 1 0-16 0Z" fill="#F7867F" p-id="1963"></path><path d="M600 614.9m-8 0a8 8 0 1 0 16 0 8 8 0 1 0-16 0Z" fill="#F7867F" p-id="1964"></path><path d="M424 582.9m-8 0a8 8 0 1 0 16 0 8 8 0 1 0-16 0Z" fill="#F7867F" p-id="1965"></path><path d="M424 614.9m-8 0a8 8 0 1 0 16 0 8 8 0 1 0-16 0Z" fill="#F7867F" p-id="1966"></path><path d="M582 302.8c-3 0-6-0.5-8.9-1.6L512 279l-61.1 22.2c-13.5 4.9-28.4-2.1-33.3-15.5-1-2.8-1.6-5.9-1.6-8.9v-60.6c0-14.4 11.6-26 26-26 3 0 6 0.5 8.9 1.6L512 214l61.1-22.2c13.5-4.9 28.4 2.1 33.3 15.5 1 2.8 1.6 5.9 1.6 8.9v60.6c0 14.4-11.6 26-26 26z" fill="#F5C73E" p-id="1967"></path><path d="M512 286.5c-13.2 0-24-10.8-24-24v-32c0-13.3 10.7-24 24-24s24 10.7 24 24v32c0 13.3-10.8 24-24 24z" fill="#FCE170" p-id="1968"></path><path d="M436.3 516.3c-7 0-12.7-5.7-12.7-12.7v-10.2c0-7 5.7-12.7 12.7-12.7s12.7 5.7 12.7 12.7v10.2c0 7.1-5.7 12.7-12.7 12.7zM587.7 516.3c-7 0-12.7-5.7-12.7-12.7v-10.2c0-7 5.7-12.7 12.7-12.7s12.7 5.7 12.7 12.7v10.2c0 7.1-5.7 12.7-12.7 12.7z" fill="#450064" p-id="1969"></path><path d="M781 384c-23.6-84.3-85.5-152.7-167.2-184.6-5.4-10.1-15.1-16.9-26.2-18.6-0.7-21.5-8.9-42.5-24-61.3-6-7.5-14.5-12.2-24.1-13.3-9.5-1.1-18.9 1.6-26.4 7.6s-12.2 14.5-13.3 24.1c-1.1 9.5 1.6 18.9 7.6 26.4 4.3 5.5 7 11 8 16.1h-3.5c-17.2 0-34.3 1.6-50.9 4.7l-6.7-2.5c-0.1 0-0.1 0-0.2-0.1-4.1-1.4-8.2-2.1-12.2-2.1-13.3 0-25.5 7.5-31.8 19.1C328.5 231.3 266.6 299.7 243 384c-44.8 3.4-80.1 40.9-80.1 86.5 0 47.9 38.9 86.8 86.8 86.8h0.6c21.1 56.3 59.9 104.4 110.5 137.1-10.7 19.4-17.2 38.6-19.2 57-13.7 21-24.4 44-31.8 68.5-1.3 1.2-2.3 2.8-2.8 4.7-6 22.7-9.6 53.2-9.6 81.6 0 5.5 4.5 10 10 10H716.8c5.5 0 10-4.5 10-10 0-28-3.6-58.5-9.6-81.5-0.5-1.8-1.5-3.5-2.8-4.7-7.4-24.5-18.2-47.7-32.2-69.1-0.4-3.6-1-7.1-1.7-10.7 14.8-5 28.4-6.5 36.9-6.2 6.8 0.3 13.2-2 18.2-6.6s7.9-10.9 8.2-17.7c0.3-9.5-4.6-17.9-12.1-22.6 1.6-1.6 2.9-3.3 4.1-5.3 3.4-5.9 4.3-12.8 2.5-19.3-1.7-6.5-5.9-11.9-11.8-15.3-1.7-1-3.5-1.8-5.4-2.3 22.8-25.7 40.7-55.3 52.7-87.5h0.6c47.9 0 86.8-38.9 86.8-86.8-0.1-45.7-35.5-83.2-80.2-86.6z m-598.1 86.5c0-32.9 23.9-60.2 55.2-65.8-3.6 17.9-5.4 36.3-5.4 54.8 0 26.4 3.7 52.4 10.9 77.5-34-3.1-60.7-31.7-60.7-66.5zM579 200.7c0.1 0 0.2 0 0.4-0.1 7.2-1.4 14.6 2.6 17.4 9.6 0.1 0.3 0.2 0.5 0.3 0.8 0.6 1.7 1 3.5 1 5.4V277c0 8.8-7.2 16-16 16-1.7 0-3.6-0.3-5.6-1l-34.8-12.7c2.8-4.9 4.4-10.6 4.4-16.7v-32c0-6-1.6-11.7-4.3-16.6l25.6-9.3 9.4-3.4c0.9-0.3 1.7-0.5 2.2-0.6zM519.8 140c0.5-4.2 2.6-8 5.9-10.6 3.3-2.7 7.5-3.8 11.7-3.4 4.2 0.5 8 2.6 10.6 5.9 12.7 15.9 19.5 33.6 19.7 51.3l-33.4 12.1c0.2-0.8 0.4-1.5 0.6-2.3v-0.1c0-0.1 0-0.2 0.1-0.3 2.9-13.2-1.3-27.7-11.8-41-2.7-3.3-3.9-7.4-3.4-11.6z m-21.7 90.5c0-5.1 2.7-9.5 6.8-12 0.2-0.1 0.4-0.2 0.6-0.4 2-1 4.2-1.6 6.5-1.6 2.4 0 4.6 0.6 6.5 1.6 0.2 0.1 0.4 0.3 0.6 0.4 4.1 2.5 6.8 6.9 6.8 12v32c0 7.7-6.3 14-14 14-2.3 0-4.5-0.6-6.4-1.6-0.2-0.1-0.4-0.3-0.6-0.4-4.1-2.5-6.8-6.9-6.8-12v-32z m-71.9-14.4c0-1.9 0.3-3.7 1-5.6 2.2-6.1 8.2-10.3 14.8-10.3 1.7 0 3.6 0.3 5.6 1l8.9 3.2c0.3 0.1 0.5 0.2 0.8 0.3l25.2 9.2c-2.8 4.9-4.4 10.6-4.4 16.6v32c0 6 1.6 11.7 4.4 16.6l-34.9 12.7c-4 1.5-8.3 1.3-12.1-0.5-3.9-1.8-6.8-5-8.3-9.1v-0.1c-0.6-1.7-1-3.5-1-5.4v-60.6z m-82.6 572.1c2.2 9.1 5.5 17.9 10.2 26.3 0.5 0.9 1 1.8 1.5 2.6h-23.6c3.4-9.9 7.4-19.6 11.9-28.9z m41.1 107.9h-67.1c0.6-20.7 3.1-41.7 7-59h45.9c4.4 4.7 9.2 9 14.2 12.9v46.1z m234.7 0H404.6v-33c29.6 16.3 67.6 25.4 107.2 25.4 39.8 0 78-9.2 107.6-25.6v33.2z m3.9-59.2c-27.4 19.8-69 31.7-111.4 31.7-42 0-83.2-11.6-110.7-31.2-0.5-0.4-0.9-0.7-1.5-1.1-5.9-4.3-11.4-9.2-16.2-14.6-0.6-0.9-1.2-1.7-2-2.3-3.9-4.6-7.2-9.4-10.1-14.6-8-14.4-11.4-30.4-10.1-47.6 0.3-1.2 0.4-2.4 0.3-3.6 1.7-15.6 7.3-32.1 16.6-49 3.9 2.3 7.9 4.4 11.9 6.3 0.7 0.3 1.3 0.6 2 1 0.5 0.2 1 0.5 1.5 0.7 0.1 0 0.1 0.1 0.2 0.1 2.3 1.1 4.7 2.2 7.3 3.3-16.5 29.8-19 55.6-7.3 76.7 8.5 15.3 24.5 28.3 46.4 37.4 21 8.7 45.9 13.3 71.9 13.3 26 0 51-4.6 71.9-13.3 21.9-9.1 37.9-22 46.4-37.4 7.8-14.3 9.2-30.7 4.3-48.9-1.2-4.7-2.9-9.7-5.2-14.8-1.9-4.3-4.1-8.7-6.5-13.1 2.6-1.1 5-2.2 7.3-3.3 0.1 0 0.1-0.1 0.2-0.1 0.5-0.3 1.1-0.5 1.6-0.8 0.6-0.3 1.2-0.6 1.9-0.9 3.9-1.9 7.8-3.9 11.8-6.1 0.9 1.6 1.7 3.3 2.6 5 2.9 5.8 5.2 11 7 15.8 1.5 4.1 2.6 7.5 3.5 10.8 0 0.1 0 0.1 0.1 0.2 1.7 6.2 2.9 12.6 3.5 18.9 1.7 17.7-1.7 34.4-10 49.4-3.1 5.6-6.8 10.8-11.1 15.8-5.4 6.1-11.4 11.6-18.1 16.3z m-156.2-123c0-0.2-0.1-0.3-0.1-0.5 0-0.3-0.1-0.5-0.1-0.8 0-0.2 0-0.3-0.1-0.5 0-0.3 0-0.6-0.1-0.9v-0.4-1.3l0.5-7 1.7-21.8h86.3v0.2l1.6 20.5 0.6 8.4c0 0.2 0 0.5 0.1 0.7v1.7c0 0.2 0 0.5-0.1 0.7 0 0.1 0 0.2-0.1 0.3 0 0.2-0.1 0.4-0.1 0.7 0 0.1-0.1 0.2-0.1 0.3-0.1 0.2-0.1 0.4-0.2 0.6-14.8 2.6-29.8 3.9-44.8 3.9-14.9 0-30-1.3-44.8-3.9v-0.2c-0.1-0.2-0.1-0.5-0.2-0.7z m6.9-91c0-21 17-38 38-38s38 17 38 38-17 38-38 38-38-17-38-38z m38-58c-31.8 0-57.7 25.7-58 57.4-8.7 9.4-14.8 20.9-18.1 33.3-24.7-9.6-42-31.4-42-56.8 0-34 31.1-61.7 69.4-62 29.6 19.4 67.5 19.4 97 0 38.3 0.3 69.4 28 69.4 62 0.2 25.5-17.1 47.3-41.7 56.9-3.2-12.4-9.4-23.8-18-33.2-0.2-31.8-26.2-57.6-58-57.6z m-31.3 195.8h62.7c1.2 0 2.5 0 4-0.1 20-1.6 36.7-14.6 43.2-33 4.7-1.4 9.3-2.8 13.7-4.3 2.7 4.6 5 9.2 7 13.7 1.8 4.2 3.2 8.2 4.2 11.9v0.2c3.6 13.2 2.8 24.3-2.5 34-13.1 23.7-54.6 40.3-100.8 40.3s-87.7-16.6-100.8-40.3c-8.4-15.2-5.5-35.3 8.7-59.7 4.2 1.4 8.8 2.8 13.5 4.2 7.1 19.5 26 33.1 47.1 33.1z m225.7 135.4h-67v-46.4c4.9-3.8 9.5-8 13.8-12.6h46.2c3.9 17.5 6.4 38.6 7 59z m-14.1-79h-24l1.5-2.7c4.8-8.5 8.2-17.4 10.3-26.6 4.7 9.5 8.8 19.3 12.2 29.3z m-23.4-126.8c8.4-5.7 16.5-11.9 24.3-18.5 7.2-3.8 13.7-6.6 18.9-8 1.4-0.4 2.9-0.2 4.1 0.5 0.8 0.5 2 1.4 2.4 3.1 0.5 1.6 0.3 3.1-0.4 4.3-0.5 0.8-1.4 2-3.1 2.4h-0.2c-6.9 2-15.3 6-23.6 11-7.6 1.3-15.1 3-22.4 5.2z m54.7 18.5c0 1.5-0.7 2.8-1.7 3.7-0.6 0.5-1.9 1.4-3.8 1.4-12.9-0.5-28.4 2-43.2 6.9-0.3-0.8-0.5-1.5-0.8-2.3-0.9-2.5-2-5.1-3.1-7.7 7.8-2.6 16-4.6 24.2-6 0.8 0 1.6-0.1 2.4-0.4 7.3-1.1 14.5-1.5 20.9-1.2 2.9 0.1 5.2 2.6 5.1 5.6z m33.7-165.1c-14.9 43.4-41.1 82.1-75.9 112.1-10.6 9.2-22.1 17.6-34.1 24.9-0.8 0.4-1.9 1.1-3.1 1.9-6.5 3.9-12.7 7.2-19 10.2-0.1 0-0.1 0.1-0.2 0.1-0.6 0.3-1.1 0.5-1.6 0.8l-1.8 0.9c-4.8 2.3-10.1 4.5-16.6 7.1-3.8 1.5-7.8 2.9-11.9 4.2l-0.4-4.7-2-25.2c34.4-11.5 59.1-41.7 59.1-77 0-45.2-40.4-82-90-82h-2.4c-1.9 0-3.8 0.6-5.4 1.6l-2 1.3s-0.1 0-0.1 0.1c-23 15.4-52.9 15.4-76 0 0 0-0.1 0-0.1-0.1l-2-1.3c-1.6-1.1-3.5-1.6-5.4-1.6H464c-49.6 0-90 36.8-90 82 0 35.4 24.7 65.6 59.2 77.1l-1.9 23.7-0.4 6.2c-3.7-1.2-7.3-2.5-10.8-3.8-0.6-0.3-1.2-0.5-1.8-0.7-6.2-2.4-11.2-4.6-15.8-6.7-0.7-0.3-1.3-0.6-2-0.9-0.5-0.2-1-0.5-1.5-0.7-0.1 0-0.1-0.1-0.2-0.1-6.4-3-12.6-6.4-19.2-10.4-52.9-31.7-93-81-112.9-139-9.3-27-14-55.3-14-84.2 0-21.5 2.6-42.9 7.8-63.4 19.4-77.3 73.2-141 145.5-173.4v54c0 4.3 0.7 8.5 2.2 12.4 3.3 9.1 9.9 16.3 18.7 20.3 4.8 2.2 9.9 3.3 15 3.3 4.2 0 8.4-0.7 12.4-2.2l45.2-16.5c3.9 1.5 8 2.4 12.4 2.4 4.3 0 8.5-0.8 12.3-2.3l45.4 16.5c0.1 0 0.1 0 0.2 0.1 4.1 1.4 8.2 2.1 12.2 2.1 19.9 0 36-16.1 36-36v-54.1c72.3 32.3 126.1 96.1 145.5 173.4 5.2 20.5 7.8 41.8 7.8 63.4 0 28.8-4.7 57.2-14 84.2z m23.1-6.7c7.2-25.1 10.9-51.1 10.9-77.5 0-18.5-1.8-36.9-5.4-54.8 31.3 5.5 55.2 32.9 55.2 65.8 0 34.8-26.7 63.4-60.7 66.5z" fill="#450064" p-id="1970"></path></svg>