<svg t="1698906884664" class="icon" viewBox="0 0 1024 1024" version="1.1" xmlns="http://www.w3.org/2000/svg" p-id="6041" width="200" height="200"><path d="M886.096674 467.094656v413.187836c0 36.468318-35.857518 71.858754-75.164257 71.858754H203.690016c-39.288774 0-72.128224-35.390436-72.128225-71.858754V467.094656s374.653579-15.539456 485.04659-179.646885c0.017965 0 121.3874 267.116953 269.488293 179.646885z" fill="#FFDB2B" p-id="6042"></path><path d="M1014.795702 773.608172c-37.977352-85.152624-50.606528-239.577086-54.7923-338.939779-3.233644-76.924796-25.617646-152.322594-68.535287-216.25892-69.289804-103.243065-145.33433-151.424359-213.474393-181.263707a446.188969 446.188969 0 0 0-356.473314 0c-64.439338 28.204561-140.340147 70.008391-199.479901 162.418749-40.95949 64.008185-61.097906 138.992795-62.588975 214.983427-1.922222 98.284811-11.138107 271.08715-50.426881 362.060333a37.977352 37.977352 0 0 0 19.383899 50.031657c19.455758 8.605086 76.224173 13.778916 103.171206 17.713183V467.094656s374.653579-15.539456 485.04659-179.646885c0 0 121.369436 267.116953 269.470328 179.646885v377.258459c36.486282-7.293664 85.134659-10.635096 107.788131-19.419828a38.139034 38.139034 0 0 0 20.910897-51.325115z" fill="#ECF0F1" p-id="6043"></path><path d="M356.55155 592.847476m-107.788131 0a107.788131 107.788131 0 1 0 215.576262 0 107.788131 107.788131 0 1 0-215.576262 0Z" fill="#FFFFFF" p-id="6044"></path><path d="M320.622173 556.918099m-35.929377 0a35.929377 35.929377 0 1 0 71.858754 0 35.929377 35.929377 0 1 0-71.858754 0Z" fill="#556080" p-id="6045"></path><path d="M679.915944 592.847476m-107.788132 0a107.788131 107.788131 0 1 0 215.576263 0 107.788131 107.788131 0 1 0-215.576263 0Z" fill="#FFFFFF" p-id="6046"></path><path d="M643.986566 556.918099m-35.929377 0a35.929377 35.929377 0 1 0 71.858755 0 35.929377 35.929377 0 1 0-71.858755 0Z" fill="#556080" p-id="6047"></path><path d="M710.366091 1024h-420.194065a23.443919 23.443919 0 0 1-23.443918-23.443919V952.141246h467.081901v48.414835c0 12.95254-10.491378 23.443919-23.443918 23.443919z" fill="#FEC722" p-id="6048"></path><path d="M410.427651 892.965562a17.964689 17.964689 0 0 1-14.766974-28.168632c2.191692-3.197715 54.738406-78.254183 136.67535-90.613888 45.684203-6.89844 90.84743 6.970299 134.214188 41.19303a17.982653 17.982653 0 0 1-22.276214 28.204561c-35.246719-27.827303-71.104237-39.306738-106.584496-33.881402-66.702888 10.07819-111.991868 74.822928-112.458951 75.469656a17.838936 17.838936 0 0 1-14.802903 7.796675z" fill="#E57E25" p-id="6049"></path></svg>