<svg t="1698906838536" class="icon" viewBox="0 0 1024 1024" version="1.1" xmlns="http://www.w3.org/2000/svg" p-id="4583" width="200" height="200"><path d="M512 512m-512 0a512 512 0 1 0 1024 0 512 512 0 1 0-1024 0Z" fill="#FBD971" p-id="4584"></path><path d="M292.571429 513.219048c-107.471238 0-179.663238-61.781333-179.663239-153.770667a147.236571 147.236571 0 0 1 147.065905-147.041524 121.417143 121.417143 0 0 1 121.295238 121.295238 101.083429 101.083429 0 0 1-100.961523 100.961524 84.967619 84.967619 0 0 1-84.845715-84.870095 72.216381 72.216381 0 0 1 72.143238-72.143238 24.380952 24.380952 0 1 1 0 48.761904 23.405714 23.405714 0 0 0-23.381333 23.381334c0 19.894857 16.188952 36.10819 36.08381 36.10819 28.769524 0 52.199619-23.405714 52.199619-52.199619a72.606476 72.606476 0 0 0-72.533334-72.533333 98.425905 98.425905 0 0 0-98.304 98.279619c0 77.409524 67.608381 105.008762 130.901334 105.008762 78.60419 0 121.904762-51.95581 121.904761-146.285714a24.380952 24.380952 0 1 1 48.761905 0c0 120.295619-65.389714 195.047619-170.666666 195.047619zM755.029333 472.722286a121.417143 121.417143 0 0 1-121.295238-121.295238 101.083429 101.083429 0 0 1 100.961524-100.961524 84.943238 84.943238 0 0 1 84.845714 84.845714 72.240762 72.240762 0 0 1-72.143238 72.167619 24.380952 24.380952 0 1 1 0-48.761905 23.405714 23.405714 0 0 0 23.381334-23.405714c0-19.894857-16.188952-36.08381-36.08381-36.083809-28.769524 0-52.199619 23.405714-52.199619 52.199619a72.606476 72.606476 0 0 0 72.533333 72.533333A98.425905 98.425905 0 0 0 853.333333 325.680762c0-77.433905-67.608381-105.033143-130.901333-105.033143-78.60419 0-121.904762 51.95581-121.904762 146.285714a24.380952 24.380952 0 1 1-48.761905 0c0-120.32 65.389714-195.047619 170.666667-195.047619C829.903238 171.885714 902.095238 233.691429 902.095238 325.656381a147.236571 147.236571 0 0 1-147.065905 147.065905z" fill="#F29C1F" p-id="4585"></path><path d="M486.083048 817.005714c-59.099429-128.731429 89.283048-135.241143 146.968381-124.342857 24.941714 4.705524 20.894476 11.800381 34.352761 41.106286s21.455238 30.890667 8.777143 52.857905c-29.354667 50.858667-130.998857 159.110095-190.098285 30.378666z" fill="#C03A2B" p-id="4586"></path></svg>